<svg xmlns="http://www.w3.org/2000/svg" xmlns:xlink="http://www.w3.org/1999/xlink" viewBox="0 0 153 44"><g transform="translate(0 2)"><path d="M 10.205 35.146 C 11.599 35.146 12.729 36.277 12.729 37.671 C 12.729 39.065 11.599 40.196 10.204 40.195 C 8.81 40.195 7.68 39.065 7.68 37.67 C 7.68 36.276 8.81 35.146 10.205 35.146 Z M 20.724 35.146 C 22.118 35.146 23.249 36.277 23.249 37.671 C 23.249 39.065 22.118 40.195 20.724 40.195 C 19.329 40.195 18.199 39.065 18.199 37.671 C 18.199 36.276 19.329 35.146 20.724 35.146 Z M 121.039 0 C 121.795 0 122.408 0.613 122.408 1.369 C 122.408 2.126 121.795 2.739 121.039 2.739 L 31.692 2.739 L 27.704 21.638 L 27.704 21.638 L 27.247 23.888 C 27.232 23.961 27.211 24.032 27.185 24.102 L 25.662 31.321 C 25.528 31.954 24.969 32.407 24.322 32.407 L 6.162 32.407 C 5.406 32.407 4.793 31.794 4.793 31.038 C 4.793 30.282 5.406 29.669 6.162 29.669 L 23.211 29.669 L 24.199 24.984 L 4.411 24.984 C 3.759 24.984 3.197 24.524 3.069 23.885 L 0.027 8.748 C -0.054 8.346 0.05 7.929 0.31 7.611 C 0.57 7.293 0.959 7.109 1.369 7.109 L 27.971 7.109 L 29.242 1.086 L 29.256 1.028 C 29.411 0.423 29.957 0 30.582 0 Z M 12.322 12.046 C 12.089 12.046 11.883 12.196 11.811 12.417 L 10.943 15.09 C 10.765 15.637 10.341 16.068 9.797 16.254 L 7.225 17.133 C 6.999 17.21 6.847 17.423 6.847 17.663 C 6.847 17.902 6.999 18.115 7.225 18.192 L 9.797 19.071 C 10.341 19.257 10.766 19.688 10.943 20.235 L 11.811 22.908 C 11.884 23.129 12.09 23.278 12.322 23.278 C 12.555 23.278 12.761 23.129 12.833 22.908 L 13.701 20.235 C 13.879 19.688 14.303 19.257 14.847 19.071 L 17.419 18.192 C 17.645 18.115 17.797 17.902 17.797 17.663 C 17.797 17.423 17.645 17.211 17.419 17.133 L 14.847 16.254 C 14.303 16.068 13.879 15.637 13.701 15.09 L 12.833 12.417 C 12.761 12.196 12.555 12.046 12.322 12.046 Z M 18.901 8.672 C 18.668 8.672 18.462 8.822 18.39 9.043 L 18.12 9.875 C 17.954 10.386 17.557 10.789 17.048 10.963 L 16.271 11.228 C 16.045 11.306 15.893 11.519 15.893 11.758 C 15.893 11.997 16.045 12.21 16.271 12.288 L 17.048 12.553 C 17.557 12.727 17.954 13.13 18.12 13.642 L 18.39 14.473 C 18.462 14.694 18.668 14.843 18.901 14.843 C 19.133 14.843 19.339 14.694 19.411 14.473 L 19.682 13.642 C 19.848 13.13 20.245 12.727 20.754 12.553 L 21.531 12.288 C 21.757 12.21 21.909 11.997 21.909 11.758 C 21.909 11.519 21.757 11.306 21.531 11.228 L 20.754 10.963 C 20.245 10.789 19.848 10.386 19.682 9.874 L 19.411 9.043 C 19.34 8.822 19.133 8.673 18.901 8.672 Z" fill="rgb(19,146,225)"></path><path d="M 122.298 8.777 L 122.298 32.629 L 119.065 32.629 L 119.065 8.776 L 122.298 8.776 Z M 99.86 32.629 L 96.495 32.629 L 105.205 8.776 L 108.801 8.776 L 117.544 32.629 L 114.146 32.629 L 112.001 26.691 L 101.972 26.691 Z M 106.591 13.923 L 102.962 23.887 L 111.045 23.887 L 107.382 13.923 C 107.218 13.461 107.053 12.9 106.987 12.538 C 106.921 12.867 106.756 13.428 106.591 13.923 Z M 93.052 32.629 L 89.951 32.629 L 89.951 19.103 L 86.784 19.103 L 86.784 16.496 L 89.951 16.496 L 89.951 11.449 L 93.052 11.449 L 93.052 16.496 L 96.22 16.496 L 96.22 19.103 L 93.052 19.103 Z M 84.947 16.365 L 84.947 19.202 L 83.561 19.202 C 80.625 19.202 78.81 20.983 78.81 24.084 L 78.81 32.629 L 75.709 32.629 L 75.709 16.529 L 78.612 16.529 L 78.81 18.971 C 79.47 17.288 81.087 16.166 83.297 16.166 C 83.858 16.166 84.32 16.232 84.947 16.364 Z M 64.453 33.025 C 60.989 33.025 58.944 31.079 58.944 28.142 C 58.944 25.173 61.154 23.326 64.948 23.029 L 70.029 22.633 L 70.029 22.171 C 70.029 19.466 68.412 18.509 66.235 18.509 C 63.628 18.509 62.144 19.664 62.144 21.61 L 59.439 21.61 C 59.439 18.245 62.21 16.035 66.367 16.035 C 70.358 16.035 73.064 18.146 73.064 22.501 L 73.064 32.629 L 70.424 32.629 L 70.095 30.023 C 69.27 31.87 67.059 33.025 64.453 33.025 Z M 65.344 30.617 C 68.28 30.617 70.062 28.703 70.062 25.668 L 70.062 24.81 L 65.938 25.14 C 63.199 25.404 62.078 26.46 62.078 28.043 C 62.078 29.759 63.331 30.617 65.344 30.617 Z M 46.625 32.992 C 39.829 32.992 35.309 28.109 35.309 20.719 C 35.309 13.362 39.96 8.381 46.79 8.381 C 52.167 8.381 56.291 11.581 57.182 16.464 L 53.718 16.464 C 52.827 13.362 50.155 11.482 46.691 11.482 C 41.874 11.482 38.707 15.111 38.707 20.686 C 38.707 26.262 41.874 29.891 46.691 29.891 C 50.188 29.891 52.959 28.01 53.85 25.074 L 57.281 25.074 C 56.258 29.825 52.002 32.992 46.625 32.992 Z" fill="rgb(14,49,79)"></path></g></svg>